<svg xmlns="http://www.w3.org/2000/svg" version="1.1" xmlns:xlink="http://www.w3.org/1999/xlink" xmlns:svgjs="http://svgjs.dev/svgjs" width="1440" height="560" preserveAspectRatio="none" viewBox="0 0 1440 560"><g mask="url(&quot;#SvgjsMask1035&quot;)" fill="none"><rect width="1440" height="560" x="0" y="0" fill="#0e2a47"></rect><path d="M 0,206 C 57.6,238.8 172.8,374.6 288,370 C 403.2,365.4 460.8,174.8 576,183 C 691.2,191.2 748.8,401 864,411 C 979.2,421 1036.8,242 1152,233 C 1267.2,224 1382.4,339.4 1440,366L1440 560L0 560z" fill="rgba(124, 0, 172, 1)"></path><path d="M 0,187 C 144,248.4 432,512.4 720,494 C 1008,475.6 1296,174.8 1440,95L1440 560L0 560z" fill="#2264ab"></path></g><defs><mask id="SvgjsMask1035"><rect width="1440" height="560" fill="#ffffff"></rect></mask></defs></svg>